<mxfile host="app.diagrams.net" modified="2024-03-09T17:11:28.320Z" agent="Mozilla/5.0 (Windows NT 10.0; Win64; x64) AppleWebKit/537.36 (KHTML, like Gecko) Chrome/122.0.0.0 Safari/537.36" etag="B4yDQObkwHWOs8WCoWzV" version="24.0.4" type="device">
  <diagram id="C5RBs43oDa-KdzZeNtuy" name="Page-1">
    <mxGraphModel dx="1195" dy="622" grid="1" gridSize="10" guides="1" tooltips="1" connect="1" arrows="1" fold="1" page="1" pageScale="1" pageWidth="827" pageHeight="1169" math="0" shadow="0">
      <root>
        <mxCell id="WIyWlLk6GJQsqaUBKTNV-0" />
        <mxCell id="WIyWlLk6GJQsqaUBKTNV-1" parent="WIyWlLk6GJQsqaUBKTNV-0" />
        <mxCell id="Cdx1JnMeDevkDzQ6uph--16" style="rounded=0;orthogonalLoop=1;jettySize=auto;html=1;exitX=0.988;exitY=0.083;exitDx=0;exitDy=0;entryX=0.031;entryY=0.933;entryDx=0;entryDy=0;entryPerimeter=0;exitPerimeter=0;" edge="1" parent="WIyWlLk6GJQsqaUBKTNV-1" source="Cdx1JnMeDevkDzQ6uph--1" target="Cdx1JnMeDevkDzQ6uph--3">
          <mxGeometry relative="1" as="geometry" />
        </mxCell>
        <mxCell id="Cdx1JnMeDevkDzQ6uph--42" value="EC" style="edgeLabel;html=1;align=center;verticalAlign=middle;resizable=0;points=[];" vertex="1" connectable="0" parent="Cdx1JnMeDevkDzQ6uph--16">
          <mxGeometry x="0.0548" y="-1" relative="1" as="geometry">
            <mxPoint as="offset" />
          </mxGeometry>
        </mxCell>
        <mxCell id="Cdx1JnMeDevkDzQ6uph--20" style="edgeStyle=orthogonalEdgeStyle;rounded=0;orthogonalLoop=1;jettySize=auto;html=1;exitX=0.75;exitY=1;exitDx=0;exitDy=0;entryX=0.75;entryY=0;entryDx=0;entryDy=0;" edge="1" parent="WIyWlLk6GJQsqaUBKTNV-1" source="Cdx1JnMeDevkDzQ6uph--1" target="Cdx1JnMeDevkDzQ6uph--4">
          <mxGeometry relative="1" as="geometry" />
        </mxCell>
        <mxCell id="Cdx1JnMeDevkDzQ6uph--37" value="EH" style="edgeLabel;html=1;align=center;verticalAlign=middle;resizable=0;points=[];" vertex="1" connectable="0" parent="Cdx1JnMeDevkDzQ6uph--20">
          <mxGeometry x="0.068" y="-1" relative="1" as="geometry">
            <mxPoint as="offset" />
          </mxGeometry>
        </mxCell>
        <mxCell id="Cdx1JnMeDevkDzQ6uph--26" style="edgeStyle=orthogonalEdgeStyle;rounded=0;orthogonalLoop=1;jettySize=auto;html=1;exitX=0;exitY=0.5;exitDx=0;exitDy=0;entryX=1;entryY=0.5;entryDx=0;entryDy=0;" edge="1" parent="WIyWlLk6GJQsqaUBKTNV-1" source="Cdx1JnMeDevkDzQ6uph--1" target="Cdx1JnMeDevkDzQ6uph--8">
          <mxGeometry relative="1" as="geometry" />
        </mxCell>
        <mxCell id="Cdx1JnMeDevkDzQ6uph--40" value="ED" style="edgeLabel;html=1;align=center;verticalAlign=middle;resizable=0;points=[];" vertex="1" connectable="0" parent="Cdx1JnMeDevkDzQ6uph--26">
          <mxGeometry x="0.0889" y="1" relative="1" as="geometry">
            <mxPoint as="offset" />
          </mxGeometry>
        </mxCell>
        <mxCell id="Cdx1JnMeDevkDzQ6uph--27" style="edgeStyle=orthogonalEdgeStyle;rounded=0;orthogonalLoop=1;jettySize=auto;html=1;exitX=0.75;exitY=0;exitDx=0;exitDy=0;entryX=0.75;entryY=1;entryDx=0;entryDy=0;" edge="1" parent="WIyWlLk6GJQsqaUBKTNV-1" source="Cdx1JnMeDevkDzQ6uph--1" target="Cdx1JnMeDevkDzQ6uph--2">
          <mxGeometry relative="1" as="geometry" />
        </mxCell>
        <mxCell id="Cdx1JnMeDevkDzQ6uph--39" value="EB" style="edgeLabel;html=1;align=center;verticalAlign=middle;resizable=0;points=[];" vertex="1" connectable="0" parent="Cdx1JnMeDevkDzQ6uph--27">
          <mxGeometry x="0.0759" y="-1" relative="1" as="geometry">
            <mxPoint as="offset" />
          </mxGeometry>
        </mxCell>
        <mxCell id="Cdx1JnMeDevkDzQ6uph--1" value="E" style="rounded=1;whiteSpace=wrap;html=1;" vertex="1" parent="WIyWlLk6GJQsqaUBKTNV-1">
          <mxGeometry x="280" y="210" width="120" height="60" as="geometry" />
        </mxCell>
        <mxCell id="Cdx1JnMeDevkDzQ6uph--11" style="edgeStyle=orthogonalEdgeStyle;rounded=0;orthogonalLoop=1;jettySize=auto;html=1;exitX=0;exitY=0.75;exitDx=0;exitDy=0;entryX=1;entryY=0.75;entryDx=0;entryDy=0;" edge="1" parent="WIyWlLk6GJQsqaUBKTNV-1" source="Cdx1JnMeDevkDzQ6uph--2" target="Cdx1JnMeDevkDzQ6uph--7">
          <mxGeometry relative="1" as="geometry" />
        </mxCell>
        <mxCell id="Cdx1JnMeDevkDzQ6uph--30" value="BA" style="edgeLabel;html=1;align=center;verticalAlign=middle;resizable=0;points=[];" vertex="1" connectable="0" parent="Cdx1JnMeDevkDzQ6uph--11">
          <mxGeometry x="0.0429" y="-3" relative="1" as="geometry">
            <mxPoint as="offset" />
          </mxGeometry>
        </mxCell>
        <mxCell id="Cdx1JnMeDevkDzQ6uph--18" style="edgeStyle=orthogonalEdgeStyle;rounded=0;orthogonalLoop=1;jettySize=auto;html=1;exitX=0.25;exitY=1;exitDx=0;exitDy=0;entryX=0.25;entryY=0;entryDx=0;entryDy=0;" edge="1" parent="WIyWlLk6GJQsqaUBKTNV-1" source="Cdx1JnMeDevkDzQ6uph--2" target="Cdx1JnMeDevkDzQ6uph--1">
          <mxGeometry relative="1" as="geometry" />
        </mxCell>
        <mxCell id="Cdx1JnMeDevkDzQ6uph--38" value="BE" style="edgeLabel;html=1;align=center;verticalAlign=middle;resizable=0;points=[];" vertex="1" connectable="0" parent="Cdx1JnMeDevkDzQ6uph--18">
          <mxGeometry x="-0.1448" y="3" relative="1" as="geometry">
            <mxPoint as="offset" />
          </mxGeometry>
        </mxCell>
        <mxCell id="Cdx1JnMeDevkDzQ6uph--2" value="B" style="rounded=1;whiteSpace=wrap;html=1;" vertex="1" parent="WIyWlLk6GJQsqaUBKTNV-1">
          <mxGeometry x="280" y="90" width="120" height="60" as="geometry" />
        </mxCell>
        <mxCell id="Cdx1JnMeDevkDzQ6uph--25" style="edgeStyle=orthogonalEdgeStyle;rounded=0;orthogonalLoop=1;jettySize=auto;html=1;exitX=0.25;exitY=1;exitDx=0;exitDy=0;entryX=0.25;entryY=0;entryDx=0;entryDy=0;" edge="1" parent="WIyWlLk6GJQsqaUBKTNV-1" source="Cdx1JnMeDevkDzQ6uph--3" target="Cdx1JnMeDevkDzQ6uph--6">
          <mxGeometry relative="1" as="geometry" />
        </mxCell>
        <mxCell id="Cdx1JnMeDevkDzQ6uph--44" value="CF" style="edgeLabel;html=1;align=center;verticalAlign=middle;resizable=0;points=[];" vertex="1" connectable="0" parent="Cdx1JnMeDevkDzQ6uph--25">
          <mxGeometry x="-0.0529" y="-1" relative="1" as="geometry">
            <mxPoint as="offset" />
          </mxGeometry>
        </mxCell>
        <mxCell id="Cdx1JnMeDevkDzQ6uph--3" value="C" style="rounded=1;whiteSpace=wrap;html=1;" vertex="1" parent="WIyWlLk6GJQsqaUBKTNV-1">
          <mxGeometry x="490" y="90" width="120" height="60" as="geometry" />
        </mxCell>
        <mxCell id="Cdx1JnMeDevkDzQ6uph--17" style="edgeStyle=orthogonalEdgeStyle;rounded=0;orthogonalLoop=1;jettySize=auto;html=1;exitX=0.25;exitY=0;exitDx=0;exitDy=0;entryX=0.25;entryY=1;entryDx=0;entryDy=0;" edge="1" parent="WIyWlLk6GJQsqaUBKTNV-1" source="Cdx1JnMeDevkDzQ6uph--4" target="Cdx1JnMeDevkDzQ6uph--1">
          <mxGeometry relative="1" as="geometry" />
        </mxCell>
        <mxCell id="Cdx1JnMeDevkDzQ6uph--35" value="HE" style="edgeLabel;html=1;align=center;verticalAlign=middle;resizable=0;points=[];" vertex="1" connectable="0" parent="Cdx1JnMeDevkDzQ6uph--17">
          <mxGeometry x="-0.0089" y="-2" relative="1" as="geometry">
            <mxPoint as="offset" />
          </mxGeometry>
        </mxCell>
        <mxCell id="Cdx1JnMeDevkDzQ6uph--21" style="edgeStyle=orthogonalEdgeStyle;rounded=0;orthogonalLoop=1;jettySize=auto;html=1;exitX=1;exitY=0.75;exitDx=0;exitDy=0;entryX=0;entryY=0.75;entryDx=0;entryDy=0;" edge="1" parent="WIyWlLk6GJQsqaUBKTNV-1" source="Cdx1JnMeDevkDzQ6uph--4" target="Cdx1JnMeDevkDzQ6uph--5">
          <mxGeometry relative="1" as="geometry" />
        </mxCell>
        <mxCell id="Cdx1JnMeDevkDzQ6uph--63" value="HI" style="edgeLabel;html=1;align=center;verticalAlign=middle;resizable=0;points=[];" vertex="1" connectable="0" parent="Cdx1JnMeDevkDzQ6uph--21">
          <mxGeometry x="-0.0556" relative="1" as="geometry">
            <mxPoint as="offset" />
          </mxGeometry>
        </mxCell>
        <mxCell id="Cdx1JnMeDevkDzQ6uph--4" value="H" style="rounded=1;whiteSpace=wrap;html=1;" vertex="1" parent="WIyWlLk6GJQsqaUBKTNV-1">
          <mxGeometry x="280" y="340" width="120" height="60" as="geometry" />
        </mxCell>
        <mxCell id="Cdx1JnMeDevkDzQ6uph--22" style="edgeStyle=orthogonalEdgeStyle;rounded=0;orthogonalLoop=1;jettySize=auto;html=1;exitX=0.25;exitY=0;exitDx=0;exitDy=0;entryX=0.25;entryY=1;entryDx=0;entryDy=0;" edge="1" parent="WIyWlLk6GJQsqaUBKTNV-1" source="Cdx1JnMeDevkDzQ6uph--5" target="Cdx1JnMeDevkDzQ6uph--6">
          <mxGeometry relative="1" as="geometry" />
        </mxCell>
        <mxCell id="Cdx1JnMeDevkDzQ6uph--47" value="IF" style="edgeLabel;html=1;align=center;verticalAlign=middle;resizable=0;points=[];" vertex="1" connectable="0" parent="Cdx1JnMeDevkDzQ6uph--22">
          <mxGeometry x="0.0305" relative="1" as="geometry">
            <mxPoint as="offset" />
          </mxGeometry>
        </mxCell>
        <mxCell id="Cdx1JnMeDevkDzQ6uph--5" value="I" style="rounded=1;whiteSpace=wrap;html=1;" vertex="1" parent="WIyWlLk6GJQsqaUBKTNV-1">
          <mxGeometry x="490" y="340" width="120" height="60" as="geometry" />
        </mxCell>
        <mxCell id="Cdx1JnMeDevkDzQ6uph--23" style="edgeStyle=orthogonalEdgeStyle;rounded=0;orthogonalLoop=1;jettySize=auto;html=1;exitX=0.75;exitY=1;exitDx=0;exitDy=0;entryX=0.75;entryY=0;entryDx=0;entryDy=0;" edge="1" parent="WIyWlLk6GJQsqaUBKTNV-1" source="Cdx1JnMeDevkDzQ6uph--6" target="Cdx1JnMeDevkDzQ6uph--5">
          <mxGeometry relative="1" as="geometry" />
        </mxCell>
        <mxCell id="Cdx1JnMeDevkDzQ6uph--46" value="FI" style="edgeLabel;html=1;align=center;verticalAlign=middle;resizable=0;points=[];" vertex="1" connectable="0" parent="Cdx1JnMeDevkDzQ6uph--23">
          <mxGeometry x="-0.1488" y="-1" relative="1" as="geometry">
            <mxPoint as="offset" />
          </mxGeometry>
        </mxCell>
        <mxCell id="Cdx1JnMeDevkDzQ6uph--24" style="edgeStyle=orthogonalEdgeStyle;rounded=0;orthogonalLoop=1;jettySize=auto;html=1;exitX=0.75;exitY=0;exitDx=0;exitDy=0;entryX=0.75;entryY=1;entryDx=0;entryDy=0;" edge="1" parent="WIyWlLk6GJQsqaUBKTNV-1" source="Cdx1JnMeDevkDzQ6uph--6" target="Cdx1JnMeDevkDzQ6uph--3">
          <mxGeometry relative="1" as="geometry" />
        </mxCell>
        <mxCell id="Cdx1JnMeDevkDzQ6uph--45" value="FC" style="edgeLabel;html=1;align=center;verticalAlign=middle;resizable=0;points=[];" vertex="1" connectable="0" parent="Cdx1JnMeDevkDzQ6uph--24">
          <mxGeometry x="-0.108" y="-1" relative="1" as="geometry">
            <mxPoint as="offset" />
          </mxGeometry>
        </mxCell>
        <mxCell id="Cdx1JnMeDevkDzQ6uph--28" style="edgeStyle=orthogonalEdgeStyle;rounded=0;orthogonalLoop=1;jettySize=auto;html=1;exitX=0;exitY=0.75;exitDx=0;exitDy=0;entryX=1;entryY=0.75;entryDx=0;entryDy=0;" edge="1" parent="WIyWlLk6GJQsqaUBKTNV-1" source="Cdx1JnMeDevkDzQ6uph--6" target="Cdx1JnMeDevkDzQ6uph--1">
          <mxGeometry relative="1" as="geometry" />
        </mxCell>
        <mxCell id="Cdx1JnMeDevkDzQ6uph--41" value="FE" style="edgeLabel;html=1;align=center;verticalAlign=middle;resizable=0;points=[];" vertex="1" connectable="0" parent="Cdx1JnMeDevkDzQ6uph--28">
          <mxGeometry x="-0.118" y="-2" relative="1" as="geometry">
            <mxPoint as="offset" />
          </mxGeometry>
        </mxCell>
        <mxCell id="Cdx1JnMeDevkDzQ6uph--6" value="F" style="rounded=1;whiteSpace=wrap;html=1;" vertex="1" parent="WIyWlLk6GJQsqaUBKTNV-1">
          <mxGeometry x="490" y="210" width="120" height="60" as="geometry" />
        </mxCell>
        <mxCell id="Cdx1JnMeDevkDzQ6uph--10" style="edgeStyle=orthogonalEdgeStyle;rounded=0;orthogonalLoop=1;jettySize=auto;html=1;exitX=1;exitY=0.25;exitDx=0;exitDy=0;entryX=0;entryY=0.25;entryDx=0;entryDy=0;" edge="1" parent="WIyWlLk6GJQsqaUBKTNV-1" source="Cdx1JnMeDevkDzQ6uph--7" target="Cdx1JnMeDevkDzQ6uph--2">
          <mxGeometry relative="1" as="geometry" />
        </mxCell>
        <mxCell id="Cdx1JnMeDevkDzQ6uph--29" value="AB" style="edgeLabel;html=1;align=center;verticalAlign=middle;resizable=0;points=[];" vertex="1" connectable="0" parent="Cdx1JnMeDevkDzQ6uph--10">
          <mxGeometry x="0.0184" y="-1" relative="1" as="geometry">
            <mxPoint as="offset" />
          </mxGeometry>
        </mxCell>
        <mxCell id="Cdx1JnMeDevkDzQ6uph--12" style="edgeStyle=orthogonalEdgeStyle;rounded=0;orthogonalLoop=1;jettySize=auto;html=1;exitX=0.25;exitY=1;exitDx=0;exitDy=0;entryX=0.25;entryY=0;entryDx=0;entryDy=0;" edge="1" parent="WIyWlLk6GJQsqaUBKTNV-1" source="Cdx1JnMeDevkDzQ6uph--7" target="Cdx1JnMeDevkDzQ6uph--8">
          <mxGeometry relative="1" as="geometry" />
        </mxCell>
        <mxCell id="Cdx1JnMeDevkDzQ6uph--31" value="AD" style="edgeLabel;html=1;align=center;verticalAlign=middle;resizable=0;points=[];" vertex="1" connectable="0" parent="Cdx1JnMeDevkDzQ6uph--12">
          <mxGeometry x="-0.0299" y="-1" relative="1" as="geometry">
            <mxPoint as="offset" />
          </mxGeometry>
        </mxCell>
        <mxCell id="Cdx1JnMeDevkDzQ6uph--7" value="A" style="rounded=1;whiteSpace=wrap;html=1;" vertex="1" parent="WIyWlLk6GJQsqaUBKTNV-1">
          <mxGeometry x="70" y="90" width="120" height="60" as="geometry" />
        </mxCell>
        <mxCell id="Cdx1JnMeDevkDzQ6uph--13" style="edgeStyle=orthogonalEdgeStyle;rounded=0;orthogonalLoop=1;jettySize=auto;html=1;exitX=0.75;exitY=0;exitDx=0;exitDy=0;entryX=0.75;entryY=1;entryDx=0;entryDy=0;" edge="1" parent="WIyWlLk6GJQsqaUBKTNV-1" source="Cdx1JnMeDevkDzQ6uph--8" target="Cdx1JnMeDevkDzQ6uph--7">
          <mxGeometry relative="1" as="geometry" />
        </mxCell>
        <mxCell id="Cdx1JnMeDevkDzQ6uph--32" value="DA" style="edgeLabel;html=1;align=center;verticalAlign=middle;resizable=0;points=[];" vertex="1" connectable="0" parent="Cdx1JnMeDevkDzQ6uph--13">
          <mxGeometry x="0.0989" relative="1" as="geometry">
            <mxPoint as="offset" />
          </mxGeometry>
        </mxCell>
        <mxCell id="Cdx1JnMeDevkDzQ6uph--14" style="edgeStyle=orthogonalEdgeStyle;rounded=0;orthogonalLoop=1;jettySize=auto;html=1;exitX=0.25;exitY=1;exitDx=0;exitDy=0;entryX=0.25;entryY=0;entryDx=0;entryDy=0;" edge="1" parent="WIyWlLk6GJQsqaUBKTNV-1" source="Cdx1JnMeDevkDzQ6uph--8" target="Cdx1JnMeDevkDzQ6uph--9">
          <mxGeometry relative="1" as="geometry" />
        </mxCell>
        <mxCell id="Cdx1JnMeDevkDzQ6uph--33" value="DG" style="edgeLabel;html=1;align=center;verticalAlign=middle;resizable=0;points=[];" vertex="1" connectable="0" parent="Cdx1JnMeDevkDzQ6uph--14">
          <mxGeometry x="0.0089" relative="1" as="geometry">
            <mxPoint as="offset" />
          </mxGeometry>
        </mxCell>
        <mxCell id="Cdx1JnMeDevkDzQ6uph--8" value="D" style="rounded=1;whiteSpace=wrap;html=1;" vertex="1" parent="WIyWlLk6GJQsqaUBKTNV-1">
          <mxGeometry x="70" y="210" width="120" height="60" as="geometry" />
        </mxCell>
        <mxCell id="Cdx1JnMeDevkDzQ6uph--15" style="edgeStyle=orthogonalEdgeStyle;rounded=0;orthogonalLoop=1;jettySize=auto;html=1;exitX=1;exitY=0.75;exitDx=0;exitDy=0;entryX=0;entryY=0.75;entryDx=0;entryDy=0;" edge="1" parent="WIyWlLk6GJQsqaUBKTNV-1" source="Cdx1JnMeDevkDzQ6uph--9" target="Cdx1JnMeDevkDzQ6uph--4">
          <mxGeometry relative="1" as="geometry" />
        </mxCell>
        <mxCell id="Cdx1JnMeDevkDzQ6uph--34" value="GH" style="edgeLabel;html=1;align=center;verticalAlign=middle;resizable=0;points=[];" vertex="1" connectable="0" parent="Cdx1JnMeDevkDzQ6uph--15">
          <mxGeometry x="0.0337" relative="1" as="geometry">
            <mxPoint as="offset" />
          </mxGeometry>
        </mxCell>
        <mxCell id="Cdx1JnMeDevkDzQ6uph--9" value="G" style="rounded=1;whiteSpace=wrap;html=1;" vertex="1" parent="WIyWlLk6GJQsqaUBKTNV-1">
          <mxGeometry x="70" y="340" width="120" height="60" as="geometry" />
        </mxCell>
        <mxCell id="Cdx1JnMeDevkDzQ6uph--48" value="" style="rounded=0;whiteSpace=wrap;html=1;fillColor=none;align=left;" vertex="1" parent="WIyWlLk6GJQsqaUBKTNV-1">
          <mxGeometry x="10" y="50" width="640" height="370" as="geometry" />
        </mxCell>
        <mxCell id="Cdx1JnMeDevkDzQ6uph--50" value="Réseau" style="text;html=1;align=center;verticalAlign=middle;resizable=0;points=[];autosize=1;strokeColor=none;fillColor=none;" vertex="1" parent="WIyWlLk6GJQsqaUBKTNV-1">
          <mxGeometry x="5" y="50" width="60" height="30" as="geometry" />
        </mxCell>
        <mxCell id="Cdx1JnMeDevkDzQ6uph--51" value="Inters." style="text;html=1;align=center;verticalAlign=middle;whiteSpace=wrap;rounded=0;" vertex="1" parent="WIyWlLk6GJQsqaUBKTNV-1">
          <mxGeometry x="70" y="90" width="60" height="30" as="geometry" />
        </mxCell>
        <mxCell id="Cdx1JnMeDevkDzQ6uph--52" value="Troncon" style="text;html=1;align=center;verticalAlign=middle;whiteSpace=wrap;rounded=0;" vertex="1" parent="WIyWlLk6GJQsqaUBKTNV-1">
          <mxGeometry x="200" y="70" width="70" height="30" as="geometry" />
        </mxCell>
      </root>
    </mxGraphModel>
  </diagram>
</mxfile>
